<?xml version="1.0" standalone="no"?>
<!DOCTYPE svg PUBLIC "-//W3C//DTD SVG 20010904//EN"
 "http://www.w3.org/TR/2001/REC-SVG-20010904/DTD/svg10.dtd">
<svg version="1.0" xmlns="http://www.w3.org/2000/svg"
 width="649.000000pt" height="295.000000pt" viewBox="0 0 649.000000 295.000000"
 preserveAspectRatio="xMidYMid meet">

<g transform="translate(0.000000,295.000000) scale(0.100000,-0.100000)"
fill="#000000" stroke="none">
<path d="M150 2176 l0 -596 90 0 90 0 0 240 0 240 55 0 c70 0 109 -20 124 -61
6 -18 11 -105 12 -198 1 -230 -6 -215 108 -219 93 -3 94 -3 86 20 -4 13 -10
113 -14 223 -8 224 -15 252 -75 301 l-36 30 44 46 c58 61 70 113 64 279 -5
133 -19 179 -70 226 -52 49 -91 57 -290 61 l-188 4 0 -596z m314 420 c44 -19
56 -55 56 -178 0 -157 -22 -188 -136 -188 l-54 0 0 183 c0 101 3 187 7 190 11
12 93 7 127 -7z"/>
<path d="M830 2175 l0 -595 250 0 250 0 0 85 0 85 -160 0 -160 0 0 175 0 174
128 3 127 3 3 83 3 82 -131 0 -130 0 2 168 3 167 158 3 157 3 0 79 0 80 -250
0 -250 0 0 -595z"/>
<path d="M1410 2765 c0 -3 29 -268 65 -589 36 -321 65 -586 65 -590 0 -3 56
-6 124 -6 l124 0 6 28 c3 15 17 144 32 287 15 143 28 262 30 264 10 11 15 -18
33 -199 12 -107 26 -237 32 -287 l11 -93 119 0 c138 0 121 -18 139 150 6 58
33 302 60 542 28 241 50 451 50 468 l0 31 -77 -3 -78 -3 -44 -440 c-24 -242
-46 -442 -47 -444 -2 -2 -6 -2 -8 0 -3 3 -82 764 -89 856 l-2 33 -87 0 -87 0
-5 -42 c-4 -24 -17 -167 -31 -318 -45 -492 -52 -556 -60 -548 -4 4 -95 855
-95 889 0 17 -9 19 -90 19 -49 0 -90 -2 -90 -5z"/>
<path d="M2506 2543 c-20 -126 -56 -356 -81 -513 -25 -157 -51 -320 -58 -363
-7 -42 -11 -79 -9 -82 3 -3 40 -5 83 -5 l78 0 6 33 c9 57 25 162 25 170 0 4
53 7 118 7 l118 0 15 -102 14 -103 93 -3 93 -3 -5 33 c-3 18 -44 272 -91 563
-46 292 -87 545 -90 563 l-6 32 -133 0 -133 0 -37 -227z m209 -288 c20 -143
39 -268 41 -277 5 -16 -4 -18 -85 -18 -80 0 -91 2 -91 18 0 9 18 136 40 281
22 145 40 266 40 269 0 3 4 2 9 -3 5 -6 25 -127 46 -270z"/>
<path d="M3090 2176 l0 -596 90 0 90 0 0 240 0 240 55 0 c70 0 109 -20 124
-61 6 -18 11 -101 11 -194 0 -92 5 -176 11 -194 l11 -31 90 0 c89 0 90 0 83
23 -4 12 -10 114 -14 227 -8 228 -13 245 -77 298 l-36 30 41 37 c60 54 74 111
69 278 -4 142 -17 185 -70 234 -52 49 -91 57 -290 61 l-188 4 0 -596z m315
420 c47 -20 58 -62 53 -205 -3 -109 -4 -114 -31 -137 -23 -20 -39 -24 -93 -24
l-64 0 0 183 c0 101 3 187 7 190 12 12 93 7 128 -7z"/>
<path d="M3770 2175 l0 -597 188 3 c180 4 189 5 243 32 70 34 108 86 126 170
16 80 18 681 2 774 -15 85 -58 149 -124 183 -47 24 -59 25 -242 28 l-193 4 0
-597z m358 402 l27 -27 3 -313 c5 -481 4 -487 -133 -487 l-75 0 0 423 c0 233
3 427 8 431 4 4 37 6 75 4 57 -3 71 -8 95 -31z"/>
<path d="M4750 2415 l0 -345 675 0 675 0 -2 343 -3 342 -672 3 -673 2 0 -345z
m1290 -5 l0 -290 -615 0 -615 0 0 290 0 290 615 0 615 0 0 -290z"/>
<path d="M5356 2638 c-54 -15 -141 -100 -155 -153 -23 -86 -7 -162 47 -225 94
-110 242 -115 344 -10 98 102 92 242 -16 337 -65 58 -134 73 -220 51z m84 -63
c7 -8 18 -15 26 -15 13 0 44 -37 44 -52 0 -13 -45 -9 -58 4 -9 9 -12 4 -12
-24 0 -31 5 -39 35 -56 60 -36 59 -108 -2 -147 -17 -11 -34 -28 -37 -39 -5
-20 -26 -13 -26 9 0 7 -9 16 -20 20 -23 7 -60 51 -60 71 0 22 40 16 61 -8 l18
-23 1 42 c0 37 -4 44 -29 57 -33 17 -41 34 -41 81 0 25 7 39 28 54 15 11 32
25 37 30 14 14 21 13 35 -4z"/>
<path d="M5386 2503 c-4 -9 0 -23 9 -32 13 -14 15 -12 15 17 0 34 -14 43 -24
15z"/>
<path d="M5440 2355 c0 -25 4 -35 13 -32 6 2 12 16 12 32 0 16 -6 30 -12 33
-9 2 -13 -8 -13 -33z"/>
<path d="M755 1354 c-38 -8 -108 -34 -155 -57 -69 -33 -102 -58 -176 -132 -80
-80 -98 -104 -142 -195 -28 -58 -58 -136 -67 -173 -17 -78 -20 -269 -4 -336
16 -73 60 -149 114 -200 92 -87 189 -121 345 -121 143 1 237 27 357 102 108
68 180 170 190 273 5 44 2 56 -16 74 -26 26 -50 27 -58 4 -44 -131 -154 -268
-253 -316 -157 -76 -344 -55 -441 50 -53 58 -76 111 -88 207 -43 347 166 695
449 746 76 14 168 6 225 -19 85 -38 155 -150 155 -248 0 -28 4 -33 23 -33 22
0 25 6 36 83 7 45 21 101 31 124 l18 42 -26 27 c-91 92 -329 137 -517 98z"/>
<path d="M4060 1306 c-134 -47 -122 -29 -163 -241 -20 -103 -39 -191 -42 -196
-4 -5 -39 -9 -80 -9 -73 0 -73 0 -95 -35 -12 -19 -20 -40 -18 -46 3 -8 33 -11
92 -10 81 2 87 1 82 -16 -3 -10 -15 -72 -26 -137 -12 -68 -32 -140 -46 -167
-33 -66 -123 -160 -184 -193 -142 -77 -213 -2 -181 191 20 115 81 355 102 394
10 21 19 40 19 41 0 2 -34 2 -75 0 -61 -3 -78 -7 -89 -23 -13 -20 -16 -20 -70
-4 -68 20 -111 14 -194 -25 -66 -31 -131 -85 -161 -133 -10 -18 -28 -78 -40
-135 -11 -56 -25 -111 -31 -121 -15 -30 -128 -111 -197 -142 -77 -35 -182 -55
-245 -45 -83 12 -142 82 -131 154 7 41 13 44 97 59 73 12 192 66 238 107 101
91 103 186 4 250 -86 56 -162 58 -268 9 -77 -36 -136 -86 -154 -130 -11 -25
-22 -34 -49 -39 -88 -16 -149 27 -160 114 -9 68 -10 69 -49 76 -70 13 -178
-37 -226 -105 -12 -16 -24 -28 -27 -25 -3 2 3 30 12 62 20 69 15 74 -67 74
-49 0 -60 -3 -72 -22 -19 -30 -126 -575 -126 -642 0 -25 2 -26 65 -26 l64 0 7
38 c29 170 66 339 82 375 26 59 88 126 137 148 55 26 75 24 75 -5 0 -37 41
-89 90 -113 48 -25 129 -30 188 -14 39 12 39 19 6 -144 l-26 -128 29 -41 c33
-47 108 -101 161 -116 54 -15 156 -12 226 6 74 19 188 71 249 113 l44 30 18
-40 c21 -46 73 -95 124 -116 62 -26 149 1 239 74 24 20 44 34 45 32 2 -2 15
-22 29 -45 76 -119 261 -95 418 54 56 54 60 56 60 32 0 -36 40 -110 72 -134
78 -56 256 -16 420 95 l56 39 7 -33 c34 -160 247 -161 464 -2 34 25 80 70 104
100 l42 55 7 -33 c4 -17 10 -76 14 -129 l7 -98 52 0 51 0 135 137 c75 76 159
172 188 212 83 120 100 222 50 292 -20 29 -144 97 -156 86 -3 -4 2 -26 13 -49
40 -90 18 -216 -63 -355 -50 -85 -141 -208 -149 -200 -2 2 -11 76 -19 163 -25
264 -58 392 -108 415 -18 8 -36 6 -85 -10 -34 -12 -70 -21 -81 -21 -17 0 -41
-26 -41 -44 0 -3 13 -6 29 -6 76 0 96 -29 126 -183 l18 -87 -29 -41 c-43 -63
-159 -165 -221 -195 -31 -15 -79 -30 -108 -32 -47 -4 -54 -2 -73 23 -13 16
-22 42 -22 61 0 18 22 140 50 271 46 220 49 239 33 251 -33 24 -115 8 -128
-26 -3 -9 -24 -102 -46 -207 -21 -104 -42 -197 -44 -206 -7 -21 -106 -94 -179
-131 -37 -18 -82 -32 -116 -35 -50 -5 -59 -3 -86 20 -27 24 -29 30 -27 94 1
61 46 364 59 397 4 9 50 16 167 22 l162 9 0 30 0 30 -158 3 c-157 3 -157 3
-152 25 3 12 19 90 35 172 36 179 44 199 83 229 17 13 27 29 23 35 -9 15 -10
14 -86 -13z m-1540 -516 c24 -13 42 -66 34 -106 -13 -69 -107 -141 -200 -152
-24 -2 -44 -2 -44 1 0 32 37 169 52 194 38 63 107 91 158 63z m795 -22 c13
-13 -65 -361 -90 -404 -29 -49 -86 -101 -120 -110 -34 -8 -73 19 -91 63 -14
32 -13 46 15 185 34 165 57 219 111 256 30 20 44 23 102 20 37 -2 70 -7 73
-10z"/>
<path d="M4484 1226 c-30 -30 -34 -40 -34 -84 0 -43 4 -54 26 -71 71 -56 176
21 160 118 -12 76 -93 96 -152 37z"/>
<path d="M5830 850 c-78 -28 -162 -88 -182 -130 -16 -34 -78 -343 -78 -389 0
-38 105 -135 169 -156 159 -53 443 43 587 198 52 56 82 122 70 153 -9 24 -21
16 -69 -45 -171 -220 -512 -307 -592 -150 -24 45 -13 117 18 123 111 21 148
33 217 67 123 62 181 144 159 224 -18 63 -122 126 -208 125 -20 -1 -61 -10
-91 -20z m137 -72 c30 -28 32 -100 4 -142 -36 -54 -133 -106 -198 -106 -27 0
-27 -5 -8 93 15 81 36 121 82 157 35 27 90 26 120 -2z"/>
</g>
</svg>
